<svg xmlns="http://www.w3.org/2000/svg" width="32" height="32" viewBox="0 0 120 100" xmlns:xlink="http://www.w3.org/1999/xlink">
  <g fill="none" fill-rule="evenodd">
    <g fill="#868e96" transform="translate(5 18)">
      <path d="M28.4022019,53.1516935 L29.7771283,61.0013487 C30.027115,62.6211188 30.0895963,67.0443218 26.5897834,67.9165057 C27.8397166,68.9132874 29.4021484,69.2247969 30.5270882,69.2247969 C35.2767112,69.2247969 36.4018048,65.5491494 36.4018048,60.1914483 L36.4018048,55.5190498 C36.4018048,53.8992797 35.2142914,53.1516935 33.7143717,53.1516935 L28.4022019,53.1516935 Z"/>
      <path d="M63.0461364,79.8951724 L47.4667112,79.8951724 L39.8899332,49.0608429 C45.4139305,45.7747126 50.9379278,42.4882759 56.4622326,39.2021456 L70.6176872,66.4609655 L63.0461364,79.8951724 Z M97.1525535,79.8951724 L78.7393316,79.8951724 L114.905294,37.0430651 L97.1525535,79.8951724 Z M78.7393316,11.3918774 L114.759545,35.1481992 L114.759545,35.4222222 L78.0290374,79.3421916 L57.4541845,38.6121073 L78.5938904,26.0361686 C78.5938904,25.9797701 78.6910561,25.9785441 78.7393316,25.9497318 L78.7393316,11.3918774 Z M15.0770842,75.1607356 L5.06817914,71.082636 L0.81351738,60.9447969 L16.456746,59.7697165 L15.0770842,75.1607356 Z M28.0854291,56.5722299 L28.1508316,56.5722299 L15.9179372,75.1607356 L19.7080481,26.1848276 L28.0854291,56.5722299 Z M6.91076203,59.7697165 L0.81351738,60.2706207 L0,38.3963218 L6.91076203,59.7697165 Z M35.7084225,55.4228046 L28.9643489,55.4228046 L20.2154011,23.9236782 L28.524889,11.2419923 L62.1642647,0.0634482759 L35.7084225,55.4228046 Z M63.5242781,0 L77.4408155,4.41409962 L77.4408155,25.3836015 C77.4408155,25.3836015 40.5574866,47.4826054 40.663877,47.2616092 L63.4126604,0.128429119 L63.5242781,0 Z M33.349385,31.9077395 C35.5749733,31.9077395 37.3820722,33.7091188 37.3820722,35.9276628 C37.3820722,38.1462069 35.5749733,39.9475862 33.349385,39.9475862 C31.1234893,39.9475862 29.3166671,38.1462069 29.3166671,35.9276628 C29.3166671,33.7091188 31.1234893,31.9077395 33.349385,31.9077395 Z"/>
    </g>
  </g>
</svg>
